<?xml version="1.0" encoding="utf-8"?><svg version="1.1" baseProfile="tiny" id="Logo" xmlns="http://www.w3.org/2000/svg" xmlns:xlink="http://www.w3.org/1999/xlink"
	 x="0px" y="0px" viewBox="0 0 283.5 58.9" xml:space="preserve"><g><polygon fill="#0082B4" points="0,8.7 4.3,8.7 11.7,23.6 19.1,8.7 23.4,8.7 11.7,31.1 	"/><path fill="#0082B4" d="M22.5,19.7c0-6.4,4.8-11.4,11.5-11.4c6.6,0,11.4,5,11.4,11.4c0,6.4-4.8,11.4-11.4,11.4
		C27.3,31.1,22.5,26.1,22.5,19.7 M41.5,19.7c0-4.4-3-7.8-7.5-7.8s-7.6,3.4-7.6,7.8c0,4.4,3,7.8,7.6,7.8S41.5,24.1,41.5,19.7"/><path fill="#0082B4" d="M47.8,19.7c0-6.4,4.9-11.4,11.1-11.4c6.2,0,10.7,4.5,10.8,12.3H51.7c0.4,3.9,3.4,6.9,7.4,6.9
		c2.8,0,5-1.2,6.4-2.6l2.4,2.6c-1.9,2-5,3.6-8.9,3.6C52.6,31.1,47.8,26.1,47.8,19.7 M51.9,17.4h13.5c-0.5-3.6-3.4-5.6-6.7-5.5
		C55.4,11.8,52.7,14,51.9,17.4"/><path fill="#0082B4" d="M70.9,26.7l3.1-2c1.3,1.9,3.1,3,5.7,3c2.4,0,4.6-1.1,4.6-2.8c0-1.7-1.5-2.6-4.4-3.5L78,20.8
		c-4.4-1.5-5.9-3.9-5.9-6.5c0-3.3,3.2-5.9,7.7-5.9c3.2,0,5.9,1.3,7.4,4L84.1,14c-0.8-1.5-2.4-2.3-4.3-2.3c-1.9,0-3.7,0.9-3.7,2.4
		c0,1.4,0.9,2.4,3.8,3.4l2,0.7c4.2,1.4,6.4,3.4,6.4,6.6c0,3.5-3.4,6.3-8.8,6.3C76,31.1,72.8,29.7,70.9,26.7"/><path fill="#0082B4" d="M88.3,8.7h4.4V4l3.8-1.9v6.6h6.7l-0.8,3.4h-5.8v11.7c0,2.3,0.8,3.5,3.3,3.5h3v3.4h-3.4
		c-4.2,0-6.7-2.2-6.7-6.4V12.1h-3.5L88.3,8.7z"/><path fill="#0082B4" d="M121.9,28.6c-1.9,1.7-4.3,2.6-7,2.6c-6.5,0-11.3-5-11.3-11.4c0-6.4,4.8-11.4,11.3-11.4c2.7,0,5.2,0.9,7,2.6
		V8.7h3.8v22.1h-3.8V28.6z M121.9,24v-8.5c-1.3-2.1-3.8-3.6-6.9-3.6c-4.3,0-7.4,3.4-7.4,7.8c0,4.4,3.1,7.8,7.4,7.8
		C118.2,27.6,120.7,26.1,121.9,24"/><rect x="130.8" fill="#0082B4" width="3.8" height="30.8"/><path fill="#0082B4" d="M139.6,8.7h3.8v2.2c1.8-1.7,4.3-2.6,7-2.6c6.5,0,11.3,5,11.3,11.4c0,6.4-4.8,11.4-11.3,11.4
		c-2.7,0-5.2-0.9-7-2.6v10.9h-3.8V8.7z M143.4,15.5V24c1.2,2.1,3.8,3.6,6.9,3.6c4.3,0,7.4-3.4,7.4-7.8c0-4.4-3.1-7.8-7.4-7.8
		C147.1,11.9,144.6,13.4,143.4,15.5"/><rect x="165.2" y="8.7" fill="#0082B4" width="3.8" height="22.1"/><path fill="#0082B4" d="M174,8.7h3.8v2.5c1.7-2.1,4.3-2.9,6.8-2.9c5,0,8.5,3.5,8.5,9v13.5h-3.8V17.5c0-3.2-2.1-5.6-5.6-5.6
		c-3.1,0-5.2,1.7-6,4.6v14.3H174V8.7z"/><path fill="#0082B4" d="M196.5,19.7c0-6.4,4.9-11.4,11.1-11.4c6.2,0,10.7,4.5,10.8,12.3h-17.9c0.4,3.9,3.4,6.9,7.4,6.9
		c2.8,0,5-1.2,6.4-2.6l2.4,2.6c-1.9,2-5,3.6-8.9,3.6C201.3,31.1,196.5,26.1,196.5,19.7 M200.6,17.4h13.5c-0.5-3.6-3.4-5.6-6.7-5.5
		C204.2,11.8,201.4,14,200.6,17.4"/></g><g><g><path fill="#A5A5A5" d="M139.4,53.6c0-3.1,2.7-5.4,6.1-5.4c3.4,0,6.1,2.3,6.1,5.4c0,3.1-2.7,5.4-6.1,5.4
			C142,58.9,139.4,56.6,139.4,53.6z M150.5,53.6c0-2.5-2.2-4.5-5-4.5c-2.9,0-5,2-5,4.5c0,2.5,2.2,4.5,5,4.5
			C148.4,58.1,150.5,56.1,150.5,53.6z"/></g><g><path fill="#A5A5A5" d="M155.4,50.5v8.4h-1.1V48.2l9.2,8.5v-8.4h1.1v10.6L155.4,50.5z"/><path fill="#A5A5A5" d="M168.1,48.3h6.9v0.9h-5.8V53h4.8v0.9h-4.8v4.1h5.8v0.9h-6.9V48.3z"/><path fill="#A5A5A5" d="M181.7,57.5l0.8-0.6c0.6,0.6,1.7,1.2,3,1.2c1.7,0,2.8-0.7,2.8-1.8c0-1.2-0.8-1.7-2.3-2.3l-1.3-0.5
			c-1.9-0.7-2.6-1.6-2.6-2.9c0-1.5,1.7-2.5,3.5-2.5c1.5,0,2.7,0.6,3.4,1.3l-0.8,0.6c-0.6-0.7-1.4-1.1-2.7-1.1
			c-1.3,0-2.4,0.6-2.4,1.7c0,0.9,0.5,1.5,1.9,2l1.3,0.5c1.7,0.6,3,1.5,3,3c0,1.6-1.4,2.8-3.9,2.8C183.8,58.9,182.4,58.2,181.7,57.5z
			"/><path fill="#A5A5A5" d="M193.8,49.2h-3.5v-0.9h8.1v0.9h-3.5v9.6h-1.1V49.2z"/><path fill="#A5A5A5" d="M200.3,48.3h6.9v0.9h-5.8V53h4.8v0.9h-4.8v4.1h5.8v0.9h-6.9V48.3z"/><path fill="#A5A5A5" d="M210,48.3h3.2c2.7,0,4.3,1.1,4.3,3.1c0,1.9-1.6,3.1-4.3,3.1H211v4.4H210V48.3z M213.2,53.6
			c2.1,0,3.1-0.8,3.1-2.2c0-1.4-1-2.2-3.1-2.2H211v4.5H213.2z"/><path fill="#A5A5A5" d="M227.8,48.2l5.9,10.6h-1.1l-1.8-3.2h-6l-1.8,3.2h-1.1L227.8,48.2z M225.3,54.7h5.1l-2.5-4.5L225.3,54.7z"
			/><path fill="#A5A5A5" d="M235.6,48.3h1.1V53h7.6v-4.7h1.1v10.5h-1.1v-5h-7.6v5h-1.1V48.3z"/><path fill="#A5A5A5" d="M248.8,48.3h6.9v0.9h-5.8V53h4.8v0.9h-4.8v4.1h5.8v0.9h-6.9V48.3z"/><path fill="#A5A5A5" d="M262.9,48.2l5.9,10.6h-1.1l-1.8-3.2h-6l-1.8,3.2h-1.1L262.9,48.2z M260.3,54.7h5.1l-2.5-4.5L260.3,54.7z"
			/><path fill="#A5A5A5" d="M270.4,48.3h3.4c3.9,0,6.7,2.2,6.7,5.3c0,3.1-2.8,5.3-6.7,5.3h-3.4V48.3z M273.8,57.9
			c3.4,0,5.6-1.8,5.6-4.4c0-2.5-2.2-4.4-5.6-4.4h-2.3v8.8H273.8z"/><path fill="#A5A5A5" d="M281.4,58.1c0-0.5,0.5-0.9,1-0.9c0.6,0,1,0.4,1,0.9c0,0.5-0.5,0.9-1,0.9C281.9,58.9,281.4,58.5,281.4,58.1
			z"/></g></g></svg>
